<?xml version="1.0" encoding="UTF-8"?>
<svg version="1.1" xmlns="http://www.w3.org/2000/svg" width="523" height="512">
<path d="M0 0 C3.3848854 3.05392312 6.74715198 6.13074073 10.08789062 9.23291016 C10.74225098 9.8386084 11.39661133 10.44430664 12.07080078 11.06835938 C16.59191176 15.31979409 20.68739726 19.82630641 24.71289062 24.54541016 C25.61256236 25.56745103 26.51349528 26.58838389 27.41601562 27.60791016 C34.53717583 35.82127285 40.76777459 44.44942954 46.71289062 53.54541016 C47.4115625 54.61404297 48.11023438 55.68267578 48.83007812 56.78369141 C84.83629935 113.6850892 96.32665188 182.65297484 82.40039062 248.35791016 C73.85605207 286.19483283 57.71736172 321.02978054 33.71289062 351.54541016 C33.03097656 352.42068359 32.3490625 353.29595703 31.64648438 354.19775391 C-11.416215 408.20456473 -73.74501074 440.48155764 -141.86279297 448.86230469 C-150.35849363 449.75819163 -158.87856372 449.78884101 -167.41210938 449.79541016 C-168.20434906 449.7960849 -168.99658875 449.79675964 -169.81283569 449.79745483 C-226.94978291 449.72061636 -281.18881774 430.50111412 -326.28710938 395.54541016 C-327.15722656 394.87123047 -328.02734375 394.19705078 -328.92382812 393.50244141 C-340.93262101 383.9348979 -352.4198788 373.31803698 -362.28710938 361.54541016 C-362.77244141 360.97242188 -363.25777344 360.39943359 -363.7578125 359.80908203 C-408.9728661 306.24325304 -428.9106026 238.68889912 -423.82617188 169.16650391 C-419.38707655 120.3153837 -400.33931098 74.09992503 -370.28710938 35.54541016 C-369.60390625 34.66755859 -368.92070312 33.78970703 -368.21679688 32.88525391 C-363.69009979 27.21435479 -358.88992087 21.81657309 -353.97460938 16.48291016 C-353.37559814 15.82701904 -352.77658691 15.17112793 -352.15942383 14.49536133 C-351.58667725 13.88152588 -351.01393066 13.26769043 -350.42382812 12.63525391 C-349.91553467 12.08732178 -349.40724121 11.53938965 -348.88354492 10.97485352 C-347.13743428 9.41139154 -345.41876576 8.49887129 -343.28710938 7.54541016 C-343.28710938 6.88541016 -343.28710938 6.22541016 -343.28710938 5.54541016 C-340.86718131 2.9631227 -338.01173068 0.79635448 -335.28710938 -1.45458984 C-334.75601563 -1.89657715 -334.22492188 -2.33856445 -333.67773438 -2.79394531 C-259.17593136 -64.56416206 -154.39471674 -80.72627133 0 0 Z " fill="#010101" transform="translate(429.287109375,62.45458984375)"/>
<path d="M0 0 C0.77601563 0.65097656 1.55203125 1.30195312 2.3515625 1.97265625 C6.30444884 5.32268927 9.76760461 8.8457433 13.109375 12.8046875 C14.43518318 14.34415899 15.80419492 15.84697125 17.203125 17.3203125 C49.38577077 51.26781304 69.66659977 97.74199402 75 144 C70.4451008 145.66297 65.9555036 146.62218127 61.17578125 147.33203125 C60.41449921 147.44879715 59.65321716 147.56556305 58.86886597 147.68586731 C56.35111344 148.06872021 53.83206486 148.44176997 51.3125 148.8125 C50.4327652 148.9428363 49.5530304 149.07317261 48.64663696 149.2074585 C10.89040359 154.7764193 -26.94064572 158.26804894 -65 161 C-65.45487793 159.77313477 -65.90975586 158.54626953 -66.37841797 157.28222656 C-76.42390358 130.51340339 -92.56347267 110.29163266 -118.6875 97.86328125 C-141.96228464 87.38428991 -168.34832957 87.10886403 -192.1875 95.75 C-214.64365203 104.37618532 -234.25325742 121.40826062 -244.11328125 143.56640625 C-245.84989675 147.67220238 -247.4396789 151.82436796 -249 156 C-249.66347645 157.66793922 -250.32950638 159.33486922 -251 161 C-277.69506425 159.17578815 -304.31208775 157.0712902 -330.875 153.8125 C-331.95311951 153.68035095 -333.03123901 153.5482019 -334.14202881 153.41204834 C-352.40186627 151.15934983 -352.40186627 151.15934983 -359 150 C-358.59318456 132.46995267 -353.35028912 115.23394949 -346.84228516 99.08984375 C-346.07757794 97.19248323 -345.33995832 95.28426141 -344.60546875 93.375 C-338.80430417 78.93060174 -330.60021094 65.22931436 -321 53 C-320.37867188 52.18789062 -319.75734375 51.37578125 -319.1171875 50.5390625 C-313.77687184 43.68529705 -307.95665994 37.3158115 -302 31 C-301.3090625 30.26652344 -300.618125 29.53304687 -299.90625 28.77734375 C-294.65779476 23.36756304 -288.93782519 18.63330299 -283 14 C-282.17435547 13.3517627 -282.17435547 13.3517627 -281.33203125 12.69042969 C-271.46681929 5.00332351 -261.11697056 -1.28717934 -250 -7 C-249.28553711 -7.36754395 -248.57107422 -7.73508789 -247.83496094 -8.11376953 C-224.89887172 -19.75053939 -199.23377115 -26.92230207 -173.5390625 -28.3828125 C-171.7904895 -28.4907312 -171.7904895 -28.4907312 -170.0065918 -28.60083008 C-167.6629022 -28.73982583 -165.3178343 -28.85753904 -162.97192383 -28.9519043 C-156.30145736 -29.14315952 -156.30145736 -29.14315952 -150.78125 -32.42578125 C-147.92399442 -36.55501684 -147.80778877 -38.73994859 -148.5625 -43.6875 C-149.64577452 -47.21604944 -149.64577452 -47.21604944 -152.734375 -48.1875 C-174.0840027 -53.49936909 -201.41325941 -45.7791168 -222 -40 C-222.80695313 -39.77473633 -223.61390625 -39.54947266 -224.4453125 -39.31738281 C-278.7842656 -23.70193624 -325.58581471 16.0390342 -353 65 C-367.05047135 90.64950679 -374.49133979 117.45592951 -380 146 C-383.3 145.67 -386.6 145.34 -390 145 C-390.97311668 141.1075333 -390.95805184 139.62932838 -390.21484375 135.84375 C-389.91815796 134.32467041 -389.91815796 134.32467041 -389.61547852 132.77490234 C-389.39174561 131.69418457 -389.1680127 130.6134668 -388.9375 129.5 C-388.70925537 128.38447754 -388.48101074 127.26895508 -388.24584961 126.11962891 C-379.08055634 82.67508568 -357.73918164 39.61428283 -325 9 C-324.175 8.175 -323.35 7.35 -322.5 6.5 C-321.675 5.675 -320.85 4.85 -320 4 C-319.47535156 3.44054687 -318.95070313 2.88109375 -318.41015625 2.3046875 C-248.53062324 -70.67731949 -126.34901682 -78.98521959 0 0 Z " fill="#EC5463" transform="translate(419,82)"/>
<path d="M0 0 C8.834928 1.0470441 17.61740305 2.22200298 26.39257812 3.69970703 C58.19950754 9.01073636 90.3954643 11.88709055 122.55078125 14.10009766 C123.34141968 14.15487274 124.13205811 14.20964783 124.94665527 14.26608276 C126.40032803 14.36575771 127.85417508 14.46294172 129.30822754 14.55691528 C137.90084473 15.13895375 137.90084473 15.13895375 142 16 C143.53933041 18.51804049 144.43505887 20.45324021 145.375 23.1875 C154.63679513 46.82360117 171.87839125 63.6016865 194.77734375 74.2421875 C205.21934717 78.7809062 216.598301 81.74254228 228 82 C228.77859375 82.03867187 229.5571875 82.07734375 230.359375 82.1171875 C255.75244992 82.86404264 280.34882288 72.96999375 299 56 C308.7861401 46.6352076 315.4551087 35.92887722 320.73828125 23.57421875 C321.05494751 22.84182983 321.37161377 22.10944092 321.69787598 21.3548584 C322.46849397 19.57130344 323.23471267 17.78584873 324 16 C325.18807251 15.91081299 325.18807251 15.91081299 326.40014648 15.81982422 C347.78291861 14.18644935 369.11055698 12.12142613 390.4375 9.875 C391.71567596 9.74107849 392.99385193 9.60715698 394.3107605 9.46917725 C397.97704076 9.08410791 401.64289443 8.69524482 405.30859375 8.3046875 C406.41549561 8.18810791 407.52239746 8.07152832 408.6628418 7.95141602 C410.20149902 7.7857312 410.20149902 7.7857312 411.77124023 7.61669922 C413.1106089 7.47371902 413.1106089 7.47371902 414.47703552 7.32785034 C416.20912496 7.10277142 417.93356298 6.81213634 419.64588928 6.46755981 C422.41475007 5.91762475 424.9923327 5.90352208 427.8125 5.9375 C428.78832031 5.94652344 429.76414062 5.95554687 430.76953125 5.96484375 C431.87361328 5.98224609 431.87361328 5.98224609 433 6 C429.16537909 50.48160261 404.916456 90.93839632 374 122 C373.49001465 122.51401367 372.9800293 123.02802734 372.45458984 123.55761719 C339.24288966 156.57825175 291.19446338 176.29876887 244.6875 178.5 C234.25091823 178.60643262 234.25091823 178.60643262 224.9375 182.5625 C223.49612167 186.31008365 222.9962915 190.08421617 224 194 C226.70346976 197.68654967 228.17454899 198.86861932 232.73046875 199.59375 C234.21647442 199.59341115 235.70269798 199.55979909 237.1875 199.5 C238.00774658 199.4808252 238.82799316 199.46165039 239.6730957 199.44189453 C282.51871169 197.97552899 324.94601504 184.99130639 360 160 C361.01779541 159.28094482 361.01779541 159.28094482 362.05615234 158.54736328 C371.10974726 152.1029715 379.53038416 145.17809895 387.50927734 137.44384766 C388.9496267 136.04878934 390.40619733 134.67053922 391.86328125 133.29296875 C398.54373053 126.83929568 404.27309378 119.89927727 409.85742188 112.50537109 C410.78003601 111.28980725 411.72289507 110.08962514 412.671875 108.89453125 C436.69174136 78.32992602 449.86011127 40.1674906 455 2 C458.87684087 0.80712589 461.91621923 0 466 0 C462.40279705 53.39006485 437.39826809 102.15476694 400.65625 140.28076172 C399.14738678 141.84700801 397.65127051 143.42447229 396.15625 145.00390625 C389.29790218 152.0942276 381.87573039 158.10408028 374 164 C373.18305664 164.62406738 373.18305664 164.62406738 372.34960938 165.26074219 C332.00501064 196.0192301 282.45826864 210.74853565 232.125 210.4375 C230.54925705 210.43293793 230.54925705 210.43293793 228.94168091 210.42828369 C213.57846193 210.36257712 198.96684768 209.7232938 184 206 C182.07040324 205.55949816 180.1407126 205.1194074 178.2109375 204.6796875 C144.60940992 196.71741131 113.97662512 181.44277343 87 160 C86.44006348 159.55720703 85.88012695 159.11441406 85.30322266 158.65820312 C71.84564014 147.91797825 59.50202619 135.64467797 49 122 C48.21625 121.03320312 47.4325 120.06640625 46.625 119.0703125 C39.53314523 110.25013199 33.66562762 100.78389235 28 91 C27.62601074 90.35804688 27.25202148 89.71609375 26.86669922 89.0546875 C12.00845303 63.27388193 -0.24424273 30.11898474 0 0 Z " fill="#F4F6F9" transform="translate(28,280)"/>
<path d="M0 0 C17.47790252 13.69147248 27.05095364 31.83545704 29.90527344 53.59082031 C32.07445769 71.55752362 26.03264187 90.79845626 15.1328125 105.015625 C14.47410156 105.83804688 13.81539062 106.66046875 13.13671875 107.5078125 C12.55019531 108.24773437 11.96367187 108.98765625 11.359375 109.75 C10.0135683 111.3886595 8.58355535 112.95763043 7.13671875 114.5078125 C6.47671875 114.5078125 5.81671875 114.5078125 5.13671875 114.5078125 C5.13671875 115.1678125 5.13671875 115.8278125 5.13671875 116.5078125 C3.27324384 118.03275105 1.43290189 119.40412827 -0.55078125 120.7578125 C-1.13730469 121.15822754 -1.72382813 121.55864258 -2.328125 121.97119141 C-19.65919265 133.50209139 -39.50957566 137.44309153 -60.05078125 133.88671875 C-80.55265802 129.00014855 -97.52497942 117.27268217 -108.86328125 99.5078125 C-119.98474285 81.00529118 -121.96709758 60.04034717 -117.1171875 39.3203125 C-113.3208844 26.63222391 -106.23488551 15.76611585 -96.86328125 6.5078125 C-95.85201172 5.46367187 -95.85201172 5.46367187 -94.8203125 4.3984375 C-69.64302707 -19.97582006 -27.48758288 -20.56979107 0 0 Z " fill="#000000" transform="translate(305.86328125,206.4921875)"/>
<path d="M0 0 C17.47790252 13.69147248 27.05095364 31.83545704 29.90527344 53.59082031 C32.07445769 71.55752362 26.03264187 90.79845626 15.1328125 105.015625 C14.47410156 105.83804688 13.81539062 106.66046875 13.13671875 107.5078125 C12.55019531 108.24773437 11.96367187 108.98765625 11.359375 109.75 C10.0135683 111.3886595 8.58355535 112.95763043 7.13671875 114.5078125 C6.47671875 114.5078125 5.81671875 114.5078125 5.13671875 114.5078125 C5.13671875 115.1678125 5.13671875 115.8278125 5.13671875 116.5078125 C3.27324384 118.03275105 1.43290189 119.40412827 -0.55078125 120.7578125 C-1.13730469 121.15822754 -1.72382813 121.55864258 -2.328125 121.97119141 C-19.65919265 133.50209139 -39.50957566 137.44309153 -60.05078125 133.88671875 C-80.55265802 129.00014855 -97.52497942 117.27268217 -108.86328125 99.5078125 C-119.98474285 81.00529118 -121.96709758 60.04034717 -117.1171875 39.3203125 C-113.3208844 26.63222391 -106.23488551 15.76611585 -96.86328125 6.5078125 C-95.85201172 5.46367187 -95.85201172 5.46367187 -94.8203125 4.3984375 C-69.64302707 -19.97582006 -27.48758288 -20.56979107 0 0 Z M-85.67578125 25.1953125 C-96.18027024 37.3940739 -98.78991156 51.64998779 -98.05419922 67.18847656 C-97.01142123 79.85649567 -89.73466209 92.53313678 -80.19921875 100.82421875 C-74.01389085 105.51625508 -68.32092729 109.26183258 -60.86328125 111.5078125 C-59.80947266 111.84232422 -59.80947266 111.84232422 -58.734375 112.18359375 C-45.10157714 115.87424069 -30.53061122 113.59453352 -18.23046875 106.93359375 C-4.51384887 98.67193326 3.78015081 86.6507376 7.73828125 71.15234375 C9.97723215 56.29185594 8.06132857 42.22780475 -0.55078125 29.6328125 C-11.23282646 16.19539862 -23.78366226 8.79579906 -40.86328125 6.5078125 C-58.84922614 5.91486926 -73.21546599 12.33777243 -85.67578125 25.1953125 Z " fill="#444A53" transform="translate(305.86328125,206.4921875)"/>
<path d="M0 0 C7.94487511 4.68402202 12.70947662 10.88861061 16.55859375 19.13671875 C18.64397809 28.80531885 17.16016503 37.81986189 12.55859375 46.51171875 C6.20511663 54.23892065 -1.14846037 59.64326939 -11.19140625 61.19921875 C-20.8839465 61.87348242 -29.19170091 58.73221152 -36.73046875 52.7578125 C-43.22154569 46.80535684 -46.18917733 39.43440055 -46.9921875 30.74609375 C-47.25424265 21.31210836 -44.33020958 14.5447326 -38.5234375 7.1796875 C-28.51714123 -3.31256576 -13.18351787 -6.16962659 0 0 Z " fill="#F4F6F9" transform="translate(275.75390625,237.67578125)"/>
<path d="M0 0 C7.07342634 0.59423872 14.05605882 1.37508068 21.0703125 2.453125 C23.01405205 2.74396885 24.95790502 3.03405543 26.90185547 3.32348633 C27.91487732 3.47475983 28.92789917 3.62603333 29.97161865 3.78189087 C62.69682496 8.63984054 95.60719867 12.36469104 128.63232422 14.45629883 C129.5863916 14.51712646 130.54045898 14.5779541 131.5234375 14.640625 C132.7287915 14.71071777 132.7287915 14.71071777 133.95849609 14.78222656 C136 15 136 15 139 16 C139 19.3 139 22.6 139 26 C127.83956014 26.25194973 116.85434355 25.30075285 105.75 24.3125 C104.23901733 24.17953522 104.23901733 24.17953522 102.69750977 24.04388428 C71.68908022 21.29632508 40.92471528 17.21216461 10.19921875 12.234375 C9.1663398 12.06906784 9.1663398 12.06906784 8.1125946 11.90042114 C5.30182493 11.43824513 2.70913099 10.90304366 0 10 C0 6.7 0 3.4 0 0 Z " fill="#444A53" transform="translate(26,248)"/>
<path d="M0 0 C0 3.3 0 6.6 0 10 C-38.27361442 17.8137641 -77.1011425 21.84971147 -116 25 C-117.29510498 25.10675049 -118.59020996 25.21350098 -119.92456055 25.32348633 C-126.31481492 25.83674348 -132.5870196 26.09571613 -139 26 C-139 22.7 -139 19.4 -139 16 C-136.0832103 15.27080257 -133.76073917 14.82316195 -130.82543945 14.61450195 C-129.58877029 14.52316986 -129.58877029 14.52316986 -128.32711792 14.42999268 C-127.43155182 14.36672791 -126.53598572 14.30346313 -125.61328125 14.23828125 C-123.64699971 14.09130115 -121.68077492 13.94356035 -119.71459961 13.79516602 C-118.15199905 13.67807785 -118.15199905 13.67807785 -116.55783081 13.55862427 C-82.31884849 10.96195695 -48.20181106 7.09742137 -14.32202148 1.47290039 C-13.14841064 1.27817139 -11.9747998 1.08344238 -10.765625 0.8828125 C-9.26177246 0.62588623 -9.26177246 0.62588623 -7.72753906 0.36376953 C-5 0 -5 0 0 0 Z " fill="#444A53" transform="translate(496,248)"/>
</svg>
